<svg xmlns="http://www.w3.org/2000/svg" version="1.0" width="60.000000pt" height="60.000000pt" viewBox="0 0 60.000000 60.000000" preserveAspectRatio="xMidYMid meet">

    <g transform="translate(0.000000,60.000000) scale(0.100000,-0.100000)" fill="#000000" stroke="none">
        <path d="M82 588 c-17 -17 -17 -559 0 -576 17 -17 419 -17 436 0 15 15 17 398 2 398 -6 0 -11 -76 -12 -192 l-3 -193 -205 0 -205 0 0 275 0 275 155 3 155 2 45 -45 44 -45 -31 0 c-20 0 -36 7 -42 17 -5 10 -13 14 -17 10 -5 -4 -3 -16 2 -25 8 -12 28 -18 68 -20 31 -2 56 1 56 5 0 5 -26 34 -58 66 l-58 57 -160 0 c-111 0 -164 -4 -172 -12z"/>
        <path d="M142 438 c3 -43 3 -43 46 -46 l42 -3 0 45 0 46 -46 0 -45 0 3 -42z m68 -3 c0 -20 -5 -25 -25 -25 -20 0 -25 5 -25 25 0 20 5 25 25 25 20 0 25 -5 25 -25z"/>
        <path d="M300 440 c0 -5 18 -10 40 -10 22 0 40 5 40 10 0 6 -18 10 -40 10 -22 0 -40 -4 -40 -10z"/>
        <path d="M142 288 c3 -43 3 -43 46 -46 l42 -3 0 45 0 46 -46 0 -45 0 3 -42z m68 -3 c0 -20 -5 -25 -25 -25 -20 0 -25 5 -25 25 0 20 5 25 25 25 20 0 25 -5 25 -25z"/>
        <path d="M300 300 c0 -6 27 -10 60 -10 33 0 60 4 60 10 0 6 -27 10 -60 10 -33 0 -60 -4 -60 -10z"/>
        <path d="M236 181 c-11 -12 -25 -17 -39 -13 -22 5 -22 5 -3 -17 l19 -21 29 27 c15 15 28 30 28 35 0 14 -16 9 -34 -11z"/>
        <path d="M142 138 c3 -43 3 -43 46 -46 25 -2 42 1 42 7 0 6 -16 11 -35 11 -33 0 -35 2 -35 35 0 19 -5 35 -11 35 -6 0 -9 -17 -7 -42z"/>
        <path d="M300 140 c0 -6 27 -10 60 -10 33 0 60 4 60 10 0 6 -27 10 -60 10 -33 0 -60 -4 -60 -10z"/>
    </g>
</svg>